<svg xmlns="http://www.w3.org/2000/svg" xmlns:xlink="http://www.w3.org/1999/xlink" id="Laag_1" x="0px" y="0px" viewBox="0 0 595.3 258" style="enable-background:new 0 0 595.3 258;" xml:space="preserve"><style type="text/css">	.st0{enable-background:new    ;}	.st1{fill:#FFFFFF;}</style><g class="st0">	<path class="st1" d="M52.7,113.2c0,3.5,1.4,5.2,4.2,5.2c2.6,0,5.9-1.6,9.8-4.7c4.2-3.4,7.2-6.9,8.7-10.7c1.8-4.2,2.7-7.8,2.7-10.8  s-0.6-5.2-1.8-6.7c-1.2-1.5-2.8-2.3-4.9-2.3c-0.5,0-1,0-1.5,0.1c-0.9,0.2-1.5,0.3-1.9,0.3c-0.4,0-0.6-0.1-0.6-0.3  c0-0.3,0.3-0.6,1-0.9c0.7-0.3,1.2-0.4,1.5-0.4c0.3,0,0.6,0,0.9,0c0.2,0,0.5,0,0.8,0c2.1,0,4,0.8,5.7,2.5c1.7,1.6,2.9,4.1,3.4,7.2  c0.1,0.8,0.2,1.6,0.2,2.4c0,2.7-0.6,5.8-1.9,9.2c-1.8,4.5-4.9,8.4-9.3,11.6c-4.4,3.2-8.4,4.8-12.1,4.8c-3.8,0-6.2-1.8-7-5.3  c-0.3-0.9-0.4-2.2-0.4-3.7c0-1.6,0.4-3.6,1.2-6.2c-2,3.3-4.5,6.9-7.7,10.7c-1.7,2-3.5,3.8-5.3,5.1c-1.9,1.4-3.5,2.1-4.8,2.1  c-2.6,0-3.9-1.6-3.9-4.7c0-3.7,2.4-11.2,7.2-22.6c3-7.2,4.5-12.7,4.5-16.3c0-2.3-0.7-4-2.1-4.9c-1.4-0.9-3.1-1.3-5-1.3  c-0.8,0-1.7,0.1-2.6,0.3c-6.5,1.3-12.2,4.8-17.2,10.5c-2.5,2.9-4.2,5.6-5.2,8.2c-1,2.6-1.5,4.6-1.6,5.8c-0.1,1.3-0.2,2.3-0.2,3.1  s0.2,1.8,0.5,2.8c0.3,1.1,0.9,2.1,1.6,3c1.4,1.6,3.4,2.5,6,2.5c4.2,0,7.6-2.2,10.1-6.6c1.3-2.3,1.9-4.3,1.9-6.2c0-3-1.3-4.5-4-4.5  c-0.4,0-1,0.1-1.6,0.2c-0.7,0.1-1,0-0.9-0.2c0-0.3,0.5-0.5,1.5-0.8c1-0.3,1.9-0.4,2.9-0.4c1.9,0,3.3,0.7,4.2,2.2  c0.5,0.9,0.8,2,0.8,3.2c0,1.2-0.3,2.7-1,4.3c-1.9,4.3-5.2,7.4-10,9.4c-1.3,0.5-2.5,0.8-3.6,0.8c-3.6,0-6.4-1.3-8.6-3.8  c-1.5-1.8-2.5-4-2.9-6.8C4.1,99.1,4,98.6,4,98c0-2.3,0.6-4.9,1.8-7.6c1.2-2.7,2.8-5.3,4.9-7.6c2-2.3,4.3-4.3,6.7-5.9  c2.4-1.6,5-2.9,7.6-4c2.8-1.1,5.4-1.6,7.7-1.6c2.4,0,4.5,0.4,6.5,1.1c3.5,1.5,5.3,4.5,5.3,8.8c0,3.6-1.2,8.2-3.7,13.7  c-1.7,3.8-3.3,7.8-4.8,12.1c-2.2,6.1-3.3,10.2-3.3,12c0,1.3,0.5,2,1.4,2c0.5,0,1-0.2,1.7-0.7c2-1.2,4.1-3.4,6.5-6.6  c2.3-3.3,4.8-7,7.3-11.4c2.5-4.3,4.3-7.2,5.4-8.7c1.1-1.5,2-2.2,2.7-2.2c0.2,0,0.4,0,0.5,0.1c0.5,0.3,0.7,0.8,0.7,1.5  c0,0.7-0.1,1.4-0.3,2c-0.2,0.6-1.1,2.9-2.8,7c-1.7,4.1-2.6,6.8-2.8,8.1C52.8,111.5,52.7,112.5,52.7,113.2z"></path></g><g class="st0">	<path class="st1" d="M82.2,110.5c-0.3,0.8-0.5,1.6-0.5,2.6c0,0.6,0.1,1.1,0.4,1.5s0.7,0.6,1.2,0.6c2.1,0,3.9-1.9,5.6-5.8  c0.2-0.4,0.4-0.5,0.6-0.5c0.1,0,0.1,0.1,0.1,0.2c0,0.1-0.3,0.7-0.8,1.8s-1,2-1.5,2.7c-1.2,1.6-2.6,2.4-4.3,2.4  c-0.9,0-1.7-0.3-2.3-0.9c-0.6-0.6-0.9-1.4-0.9-2.4s0.2-2.1,0.7-3.2c0.5-1.1,1.1-2.2,2-3.2c0.8-1,1.8-1.7,2.9-2.2  c0.5-0.2,1-0.3,1.5-0.3c0.5,0,0.9,0.1,1.3,0.4c0.4,0.3,0.6,0.7,0.6,1.1c0,1.4-0.8,2.7-2.4,3.9c-0.5,0.4-1.2,0.7-2.1,1  C83.4,110.4,82.7,110.5,82.2,110.5z M87.9,105.1c0-0.5-0.2-0.7-0.5-0.7c-0.6,0-1.6,0.8-2.9,2.3c-0.8,0.9-1.4,2-2,3.2  c0.4,0,0.9-0.1,1.7-0.4c0.7-0.3,1.4-0.6,1.9-1.1C87.3,107.4,87.9,106.3,87.9,105.1z"></path>	<path class="st1" d="M90.6,110.2c-0.2,0.5-0.3,1-0.5,1.5c-0.1,0.5-0.2,1-0.2,1.5c0,0.5,0.1,0.9,0.3,1.4c0.2,0.4,0.6,0.6,1.1,0.6  c0.8,0,1.6-0.5,2.4-1.6c0.8-1.1,1.6-2.5,2.4-4.2c0.2-0.3,0.4-0.4,0.5-0.4c0.1,0.1,0.1,0.2,0.1,0.4c-0.1,0.1-0.2,0.5-0.4,0.9  c-0.2,0.5-0.4,0.8-0.5,1c-0.1,0.2-0.3,0.5-0.5,1c-0.3,0.5-0.5,0.8-0.7,1.1c-0.2,0.2-0.5,0.5-0.8,0.9c-0.3,0.4-0.6,0.7-0.9,0.8  c-0.8,0.5-1.5,0.7-2.2,0.7c-0.7,0-1.2-0.2-1.6-0.5c-0.4-0.3-0.6-0.6-0.7-1c-0.1-0.4-0.1-0.7-0.1-0.9c0-0.3,0-0.6,0-1.1  c0.1-0.7,0.2-1.4,0.4-2.1s0.3-1.1,0.4-1.2c0.5-1.9,1.3-3.9,2.2-6.1s1.8-3.9,2.4-5c0.7-1.1,1.2-1.9,1.6-2.3c0.8-0.8,1.5-1.2,2.3-1.2  c0.5,0,0.9,0.4,1.1,1.1c0,0.1,0,0.3,0,0.5c0,0.8-0.3,1.7-0.8,2.9c-1.9,4.3-4.3,7.7-7,10.2C90.9,109.3,90.8,109.6,90.6,110.2z   M94.6,103.7c1.1-1.8,2-3.3,2.5-4.6s0.8-2.1,0.8-2.6c0-0.5-0.1-0.7-0.2-0.7c-0.2,0-0.7,0.4-1.3,1.3c-0.6,0.9-1.5,2.5-2.6,4.8  c-1.1,2.3-2,4.3-2.6,6.1C92.3,107,93.5,105.5,94.6,103.7z"></path>	<path class="st1" d="M105,106.6c0-0.6-0.3-0.9-0.9-0.9c-0.9,0-2,0.5-3.1,1.5s-2.2,2.1-3,3.2c-0.3,0.7-0.6,1.5-0.8,2.5  c-0.2,1-0.3,1.7-0.3,2.1c0,0.4,0.1,0.6,0.2,0.7h-2.1c-0.3,0-0.4-0.3-0.3-0.9c0.2-0.6,0.4-1.2,0.7-2c0.3-0.7,0.7-1.5,1.1-2.4  c0.4-0.9,0.8-1.6,1-2.1c-1.9,3.5-3.1,5.5-3.6,6c-0.2,0.2-0.3,0.1-0.3-0.2c0-0.1,0-0.1,0.1-0.2c0.8-1,2.4-3.9,4.7-8.5  c2.4-4.6,4-7.6,5-9.1c0.8-1.1,1.5-1.7,2.2-1.7h0h0.2c0,0,0.2,0,0.6,0.1s0.6,0.1,0.8,0c-0.8,0.6-2,2.1-3.5,4.4  c-1.5,2.3-2.6,4.3-3.5,6c-0.9,1.7-1.4,3-1.7,3.9c2.1-2.6,3.9-4.1,5.5-4.7c0.8-0.2,1.4-0.4,1.8-0.4c1,0,1.5,0.4,1.5,1.3  c0,0.3-0.1,0.6-0.2,0.9c-0.3,0.9-1,1.6-2,2.3c-1,0.7-2.1,1.1-3.2,1.2c-0.3,0.6-0.4,1.2-0.4,1.7c0,0.5,0.1,1,0.2,1.4  c0.3,1.1,0.8,1.8,1.5,2c0.2,0,0.3,0.1,0.5,0.1c0.6,0,1.4-0.4,2.2-1.2c0.7-0.8,1.6-2.3,2.7-4.6c0.2-0.3,0.3-0.4,0.4-0.3  c0.1,0.1,0.1,0.2,0.1,0.3c0,0.1-0.2,0.5-0.5,1.3c-0.3,0.8-0.8,1.7-1.4,2.6c-1.3,1.9-2.7,2.9-4.3,2.9c-0.9,0-1.7-0.3-2.2-0.8  c-0.7-0.8-1.1-1.8-1.1-3c0-0.6,0.2-1.3,0.5-1.9c0.3-0.7,0.7-1,1.2-1.1c0.1,0,0.1,0,0.2,0c0.8,0,1.6-0.3,2.3-0.9  C104.6,107.7,105,107.1,105,106.6z"></path>	<path class="st1" d="M114.7,103.9c1.7,0,2.5,1,2.5,3.1c0,0.9-0.2,2-0.7,3.1c-0.6,1.5-1.6,2.8-2.8,4c0.3,0.6,0.8,0.8,1.6,0.8  c0.6,0,1.2-0.3,1.7-0.9c0.7-0.7,1.2-1.3,1.5-1.8c0.3-0.5,0.5-0.9,0.6-1.2c0.1-0.2,0.3-0.6,0.5-1.1c0.2-0.5,0.3-0.7,0.4-0.8  c0-0.1,0.1-0.2,0.2-0.2c0.2,0,0.3,0.1,0.3,0.2c0,0.1,0,0.1-0.1,0.2l-0.2,0.5c-0.1,0.3-0.2,0.5-0.3,0.7s-0.2,0.4-0.4,0.7  c-0.2,0.4-0.3,0.6-0.4,0.8c-0.1,0.2-0.3,0.5-0.5,0.8c-0.2,0.3-0.4,0.6-0.6,0.8c-0.2,0.2-0.4,0.4-0.6,0.7c-0.2,0.2-0.5,0.4-0.7,0.6  c-0.6,0.3-1.1,0.5-1.6,0.5c-0.9,0-1.7-0.3-2.2-0.9c-1,0.8-2,1.2-2.9,1.2c-1.7,0-2.5-1-2.5-3.1c0-0.9,0.2-2,0.7-3.1  c0.7-1.6,1.6-2.9,2.9-4C112.4,104.5,113.6,103.9,114.7,103.9z M115.1,104.9c-0.6,0-1.3,0.4-2.2,1.2c-0.8,0.8-1.6,1.9-2.2,3.3  c-0.8,1.6-1.2,3-1.2,4c0,1,0.4,1.6,1.2,1.6c0.6,0,1.2-0.3,1.9-0.9c-0.4-0.5-0.5-1.1-0.5-1.7c0-1,0.4-1.5,1.2-1.5  c0.3,0,0.5,0.1,0.7,0.3c0.2,0.2,0.3,0.4,0.3,0.6c0,0.2,0,0.3-0.1,0.5c0.4-0.6,0.8-1.4,1.3-2.4c0.6-1.2,0.8-2.3,0.8-3.4  C116.3,105.5,115.9,104.9,115.1,104.9z"></path>	<path class="st1" d="M135.9,104.6c-2.8,4.9-4.1,8.1-4.1,9.5c0,0.6,0.2,0.9,0.6,0.9c0.5,0,1.2-0.4,1.9-1.2c1.1-1.3,2-2.8,2.8-4.6  c0.1-0.3,0.3-0.4,0.4-0.4c0.1,0.1,0.2,0.2,0.2,0.3s-0.1,0.4-0.3,0.8c-0.2,0.5-0.4,0.8-0.5,1.1c-0.1,0.3-0.4,0.8-0.9,1.6  c-0.5,0.8-0.9,1.3-1.2,1.7c-0.3,0.4-0.7,0.7-1.3,1.1c-0.5,0.4-1.1,0.5-1.7,0.5s-1.2-0.3-1.6-0.9c-0.2-0.3-0.3-0.7-0.3-1.2  s0.1-1.1,0.3-1.8c0.2-0.7,0.8-1.9,1.9-3.5c0.2-0.4,0.4-0.7,0.4-1s-0.2-0.4-0.6-0.4s-1,0.5-2,1.4c-1,0.9-2,2.1-3.1,3.7  c-1.1,1.5-1.7,2.8-1.9,3.7c-0.4,0-0.7-0.2-0.8-0.5c-0.2-0.3-0.3-0.6-0.3-0.8c0-0.9,0.6-2.7,1.9-5.3c0.4-0.9,0.6-1.4,0.6-1.7  c0-0.3,0-0.5-0.1-0.5c-0.1,0-0.2,0-0.4,0.1c-0.4,0.2-1,0.7-1.9,1.5c-1.6,1.4-3.1,3.7-4.7,6.6c-0.1,0.2-0.3,0.4-0.4,0.5  c-0.2,0.1-0.5,0.1-1,0.1s-0.8,0.1-1,0.2c0.4-0.8,1.1-2.3,2.1-4.4c1.8-3.9,3.1-6.1,3.7-6.7c0.3-0.3,0.6-0.4,1.1-0.4  c0.1,0,0.3,0,0.7,0.1c0.4,0.1,0.6,0.1,0.8,0c-0.8,0.5-2.2,2.6-4.1,6.4c1.1-1.3,1.8-2.2,2.3-2.6c0.5-0.4,0.8-0.7,1-0.9  s0.4-0.4,0.5-0.5c0.1-0.1,0.3-0.3,0.5-0.5c0.2-0.2,0.4-0.4,0.5-0.5c0.1-0.1,0.3-0.2,0.5-0.4c0.2-0.2,0.4-0.3,0.5-0.4  c0.1-0.1,0.3-0.2,0.5-0.3c0.2-0.1,0.4-0.2,0.5-0.2c0.1,0,0.2,0,0.4-0.1c0.2-0.1,0.3,0,0.4,0.1c0.5,0.2,0.7,0.5,0.7,0.8  c0,0.3-0.4,1.2-1.2,2.6c-0.8,1.4-1.3,2.3-1.5,2.8c1-1.2,1.9-2.3,2.8-3.1c0.9-0.8,2-1.5,3.2-2.2c1.2-0.7,2.1-1,2.7-1  C135.7,104.6,135.9,104.6,135.9,104.6z"></path>	<path class="st1" d="M154.4,106.5c0-1.3-0.5-1.9-1.6-1.9c-0.1,0-0.2,0-0.3,0c-0.4,0-0.6,0-0.7-0.2c-0.1-0.2,0-0.3,0.3-0.4  c0.3-0.1,0.6-0.1,0.9,0c1.2,0.2,2,0.7,2.4,1.7c0.3,0.6,0.4,1.1,0.4,1.7c0,1.9-0.7,3.9-2.1,5.7c-1.4,1.9-3.3,2.8-5.5,2.8  c-0.8,0-1.5-0.2-2-0.7c-0.5-0.5-0.8-1.1-0.8-1.9c0-0.9,0.5-2.6,1.6-4.8c-1.9,3.5-3.1,5.5-3.6,6c-0.2,0.2-0.3,0.1-0.3-0.2  c0-0.1,0-0.1,0.1-0.2c0.8-1,2.4-3.9,4.7-8.5c2.4-4.6,4-7.6,5-9.1c0.8-1.1,1.5-1.7,2.2-1.7h0h0.2c0,0,0.2,0,0.6,0.1s0.6,0.1,0.8,0  c-0.7,0.8-1.9,2.4-3.5,4.7c-4,5.9-6,10.3-6,13.2c0,1.2,0.4,1.9,1.2,2c0.1,0,0.1,0,0.2,0c0.7,0,1.6-0.6,2.6-1.9s1.9-2.7,2.6-4.3  C154.2,108,154.4,107.2,154.4,106.5z"></path>	<path class="st1" d="M158.9,115c0.4,0,0.9-0.2,1.4-0.6c0.8-0.8,1.9-2.5,3.2-5.1c0.2-0.3,0.3-0.4,0.5-0.3c0,0,0.1,0.1,0.1,0.2  c0,0.1-0.1,0.4-0.3,0.7c-0.2,0.4-0.3,0.8-0.5,1.1c-0.1,0.3-0.4,0.8-0.8,1.5c-0.4,0.7-0.8,1.3-1.1,1.6c-0.9,1.1-1.8,1.6-2.6,1.6  c-0.8,0-1.4-0.2-1.8-0.7c-0.4-0.5-0.5-1.1-0.5-1.7c0-0.6,0.1-1.3,0.4-2l2.2-5.5c0-0.1,0.1-0.3,0.1-0.5s-0.1-0.5-0.4-0.9l1.9,0  c0.5,0,0.8,0.1,0.9,0.3c0.1,0.2,0,0.5-0.2,0.9l-2.7,6.3c-0.4,0.8-0.6,1.5-0.6,2.1C157.9,114.7,158.2,115,158.9,115z M162.2,102.6  c-0.3,0.3-0.7,0.4-1.1,0.4c-0.4,0-0.7-0.1-0.9-0.4c-0.2-0.3-0.3-0.6-0.3-1c0.1-0.4,0.3-0.7,0.6-1c0.3-0.3,0.7-0.4,1.1-0.4  c0.4,0,0.7,0.1,0.9,0.4c0.2,0.3,0.3,0.6,0.3,1C162.7,102,162.6,102.3,162.2,102.6z"></path>	<path class="st1" d="M165.1,105.8c0.1-0.1,0.1-0.3,0.1-0.5s-0.1-0.5-0.4-0.9l1.9,0c0.5,0,0.8,0.1,0.9,0.3c0.1,0.2,0,0.5-0.2,0.9  l-2.7,6.3c-0.6,1.3-1.3,2.8-2.1,4.5c0.9-0.3,1.5-0.6,1.9-0.8c0.4-0.2,0.9-0.5,1.5-1c0.6-0.5,1.1-1,1.5-1.6c0.4-0.6,1.1-1.9,2.1-3.7  c0.2-0.3,0.3-0.4,0.4-0.4c0.1,0.1,0.2,0.2,0.2,0.3s-0.2,0.5-0.6,1.3c-0.4,0.8-0.8,1.5-1.1,2.1c-0.4,0.7-0.9,1.3-1.5,2  c-0.6,0.7-1.3,1.2-2,1.6c-0.7,0.4-1.7,0.8-3,1.3c-1.7,3.2-3.5,5.5-5.3,7c-0.7,0.6-1.5,1-2.4,1.4c-0.9,0.4-1.9,0.6-2.9,0.6  c-1,0-1.8-0.2-2.3-0.6c-0.5-0.4-0.8-0.9-0.8-1.5c0-0.6,0.2-1.3,0.5-2c0.6-1.2,1.7-2.1,3.2-2.8c1.2-0.5,2.7-1,4.6-1.5  c1.9-0.5,3.1-0.8,3.7-0.9c0.6-1,0.9-1.6,1-1.8c0.1-0.2,0.9-1.9,2.5-5.1c-0.4,0-0.5-0.2-0.3-0.5L165.1,105.8z M149.3,123.1  c-0.2,0.5-0.4,0.9-0.4,1.4c0,0.4,0.2,0.7,0.5,1c0.3,0.2,0.7,0.4,1.2,0.4c1.3,0,2.7-0.7,4.2-2c2.1-1.9,3.7-3.8,4.6-5.6  c-3.8,1-6.1,1.7-7,2.1C151,120.9,150,121.9,149.3,123.1z M168.2,102.6c-0.3,0.3-0.7,0.4-1.1,0.4c-0.4,0-0.7-0.1-0.9-0.4  c-0.2-0.2-0.3-0.5-0.3-0.6c0-0.2,0-0.4,0.1-0.6c0-0.2,0.2-0.5,0.5-0.7c0.3-0.3,0.7-0.4,1.1-0.4c0.4,0,0.7,0.1,0.9,0.4  c0.2,0.2,0.3,0.4,0.3,0.6c0,0.2,0,0.4-0.1,0.6S168.5,102.3,168.2,102.6z"></path></g><g id="Group_70" transform="translate(-306.756 -198)">	<g id="Group_68" transform="translate(450 198)">		<path id="Path_101" class="st1" d="M73.2,81.1C75.4,80,90,64.6,90.9,63.8c0.9-0.9,10.7-11.3,13.3-14.8s8.1-11.9,9.5-14.5   s8.1-14.3,8.8-15.8c0.6-1.5,3.6-5.6,7.9-5.4c4.3,0.2,8.9,0.5,16.7,11.8s9.7,16.4,11.9,19.7c2.2,3.3,10.3,15.2,10.5,15.9   s8.6-2.2,15-8.6s5.2-6.8,12.4-2.7c7.2,4.1,19.7,9.8,42.8,39.7c15.1,22.2,25.3,27.8,26.1,28.6c0,0,14.3,8.6,15.1,10.1   c0.7,1.5,0.7,2.4-5.3-0.9s-9.6-5-15.3-8c-5.7-3-17-14-20.9-18.6c-3.9-4.5-8.1-8.4-9.3-10.6c-1.2-2.1-7.4-9.2-12.7-10.2   s-10.3,11.9-10.8,13c-0.5,1.1-4.4,6-3.9,10.4c0.3,2.6,0.8,5.1,1.6,7.5c0,0-6-7-2.9-18c3-11,4.7-11.8,4.7-11.8s3.2-7.4,1.1-10.3   c-2.1-3-9.8-11-13.3-12.5s-5.1-2.2-7.7,0.6c-2.6,2.8-6.5,5-8,6c-1.5,1-4.8,2.4-4.1,5.3c0.7,2.9,1.4,3.8,1.9,7.6   c0.5,3.8,0.8,5.5,1.9,6.9c1.1,1.4,4.9,5.3,6.6,8.3c1.7,3,1.3,5.9,0.7,5.5c-1-0.7-1.8-1.7-2.3-2.7c-2.3-3.4-5-6.5-8.1-9.3   c-3.1-2.6-3.8-3.3-5.4-7.1c-1.7-3.9-4.2-7.3-7.3-10.2c-3.3-3.1-8-10.7-9.6-15.2s-3.8-10.1-5.5-12.1c-1.7-2-5.5-7.9-11.2-3.1   s-8.5,7.5-9.7,11c-1.3,3.5-4.1,9.9,0.4,18s6.9,11.5,9.4,17.9c2.4,6.4,3.1,10.8,2.8,10.6c-0.7-0.5-1.3-1.2-1.6-2   c-1.4-4.1-3.3-8.1-5.7-11.7c-4.4-7.1-8.2-12.2-8.8-13.1c-0.5-0.9-5.3-9.1-3.5-16s7.4-16.8,7.4-16.8s4.4-7.1,4.4-7.8   c0.1-0.8,0.5-6-1.5-6.1c-2-0.1-4.7,1.6-6.6,4.9s-12.3,21.2-15.4,24.9c-3.2,3.8-4.4,6.5-5.5,7.8c-1.1,1.3-13.6,13.3-20.7,19.8   c-7.1,6.4-24.4,25-26.1,27.4s-14.7,18.5-14.7,18.5s6.4-12.6,7.3-13.7c0.9-1.1,9-11.9,11.4-14.8"></path>		<g id="Group_66" transform="translate(103.88 219.899)">			<path id="Path_102" class="st1" d="M-37.7-7.5c-2.4,0-4.7-0.8-6.5-2.3l1.6-2.4c1.4,1.2,3.2,1.8,5,1.9c1.5,0,2.4-0.6,2.4-1.7V-12    c0-1.2-1.6-1.6-3.4-2.2c-2.3-0.6-4.8-1.6-4.8-4.5v-0.1c0-2.9,2.4-4.7,5.5-4.7c2,0,4,0.6,5.7,1.7l-1.4,2.5    c-1.3-0.9-2.8-1.4-4.3-1.5c-1.4,0-2.2,0.6-2.2,1.5v0.1c0,1.1,1.7,1.6,3.5,2.2c2.2,0.7,4.8,1.7,4.8,4.5v0.1    C-32-9.1-34.5-7.5-37.7-7.5z"></path>			<path id="Path_103" class="st1" d="M-21.5-12.6c-0.1,0.9,0.5,1.8,1.4,1.9c0.2,0,0.3,0,0.5,0c0.8,0,1.5-0.2,2.2-0.5v2.9    c-1,0.5-2.1,0.8-3.2,0.8c-2.6,0-4.4-1.1-4.4-4.5v-8.1h-2v-3h2v-4.2h3.5v4.2h4.1v3h-4.1V-12.6z"></path>			<path id="Path_104" class="st1" d="M-4.3-10.3c1.6,0,3.1-0.7,4.2-1.8L2-10.3c-1.5,1.9-3.9,3-6.3,2.9c-4.2,0.1-7.8-3.2-7.9-7.5    c0-0.2,0-0.4,0-0.6c0-4.4,3.1-8,7.5-8c4.9,0,7.4,3.8,7.4,8.3c0,0.3,0,0.6-0.1,1H-8.7C-8.5-11.9-6.5-10.2-4.3-10.3z M-0.8-16.5    c-0.2-2.3-1.6-4-3.9-4c-2.2,0-3.7,1.7-4,4H-0.8z"></path>			<path id="Path_105" class="st1" d="M18.5-7.8v-1.9c-1.2,1.5-3.1,2.3-5,2.2c-2.9,0-5.5-1.7-5.5-4.7v-0.1c0-3.3,2.6-5,6.2-5    c1.4,0,2.9,0.2,4.3,0.6v-0.4c0-2.1-1.3-3.3-3.8-3.3c-1.5,0-3,0.3-4.4,1l-1-2.8c1.8-0.9,3.8-1.3,5.9-1.3c4.5,0,6.8,2.4,6.8,6.5    v9.1L18.5-7.8z M18.6-14.3c-1.1-0.4-2.3-0.6-3.5-0.6c-2.2,0-3.5,0.9-3.5,2.5v0.1c0,1.5,1.3,2.3,3,2.3c2.3,0,4.1-1.3,4.1-3.2    L18.6-14.3z"></path>			<path id="Path_106" class="st1" d="M43.5-7.8h-4.1l-4.6-6.6l-2.2,2.2v4.4h-3.5V-29h3.5v12.7l6.4-6.8h4.3l-6.1,6.3L43.5-7.8z"></path>			<path id="Path_107" class="st1" d="M52.5-7.8H49V-29h3.5v8.3c1-1.7,2.8-2.7,4.8-2.7c3.5,0,5.5,2.3,5.5,5.9v9.8h-3.5v-8.7    c0-2.4-1.2-3.8-3.3-3.8c-2,0-3.5,1.4-3.5,3.8L52.5-7.8z"></path>			<path id="Path_108" class="st1" d="M77.2-7.4c-4.4,0.1-8-3.4-8.2-7.8c0-0.1,0-0.1,0-0.2c-0.1-4.5,3.4-8.3,8-8.4    c4.5-0.1,8.3,3.4,8.4,8c0.1,4.5-3.4,8.3-8,8.4C77.4-7.4,77.3-7.4,77.2-7.4z M77.2-20.4c-2.8,0-4.6,2.2-4.6,4.9    c-0.1,2.6,1.9,4.9,4.5,5c0.1,0,0.1,0,0.2,0c2.9,0,4.7-2.2,4.7-4.9c0.1-2.6-1.9-4.9-4.5-5C77.3-20.4,77.3-20.4,77.2-20.4z"></path>			<path id="Path_109" class="st1" d="M102.1-23.1h3.5v15.4h-3.5v-2.4c-1,1.7-2.8,2.7-4.8,2.7c-3.5,0-5.5-2.3-5.5-5.9v-9.8h3.5v8.7    c0,2.4,1.2,3.8,3.3,3.8c2,0,3.5-1.4,3.5-3.8L102.1-23.1z"></path>			<path id="Path_110" class="st1" d="M118.2-7.5c-2.4,0-4.7-0.8-6.5-2.3l1.6-2.4c1.4,1.2,3.2,1.8,5,1.9c1.5,0,2.4-0.6,2.4-1.7V-12    c0-1.2-1.6-1.6-3.4-2.2c-2.3-0.6-4.8-1.6-4.8-4.5v-0.1c0-2.9,2.4-4.7,5.5-4.7c2,0,4,0.6,5.7,1.7l-1.4,2.5    c-1.3-0.9-2.8-1.4-4.3-1.5c-1.4,0-2.2,0.6-2.2,1.5v0.1c0,1.1,1.7,1.6,3.5,2.2c2.2,0.7,4.8,1.7,4.8,4.5v0.1    C123.9-9.1,121.4-7.5,118.2-7.5z"></path>			<path id="Path_111" class="st1" d="M137.5-10.3c1.6,0,3.1-0.7,4.2-1.8l2.1,1.8c-1.5,1.9-3.9,3-6.3,2.9c-4.2,0.1-7.8-3.2-7.9-7.5    c0-0.2,0-0.4,0-0.6c0-4.4,3.1-8,7.5-8c4.9,0,7.4,3.8,7.4,8.3c0,0.3,0,0.6-0.1,1h-11.3C133.3-11.9,135.2-10.2,137.5-10.3z     M140.9-16.5c-0.2-2.3-1.6-4-3.9-4c-2.2,0-3.7,1.7-4,4H140.9z"></path>		</g>		<path id="Path_112" class="st1" d="M340.1,194c1,1.4,2.2,2.7,3.6,3.8c2.8,2.3,6.4,3.5,10,3.5c1.9,0,3.7-0.2,5.5-0.8   c0.8-0.2,1.6-0.6,2.4-1c0.8-0.4,1.6-0.9,2.4-1.5c0.7-0.6,1.2-1.4,1.3-2.4c0-0.5-0.1-0.9-0.4-1.3l-0.6-0.3l-0.5-0.1   c-0.4,0-1.3,0.9-2.5,2.5l-0.3,0.3c-1.3,1.5-3.3,2.2-6.4,2.2c-2.7,0.1-5.3-1.1-7.1-3.1c-1.8-2.1-3.3-5.4-4.5-10.3   c0.9-0.4,1.6-1,2.5-1.5c0.3-0.2,0.5-0.4,0.9-0.6c5.9-4.3,11.1-10.5,15.3-18.8c5.1-10.3,8.1-21.5,8.6-32.9c0.5-8.1,0-14-1.6-17.8   c-1.6-3.8-4.5-5.7-8.5-5.7c-1.9,0-3.9,0.4-5.6,1.3c-1.2,0.6-2.2,1.3-3.1,2.3c-2.7,2.4-5.3,6.3-7.9,11.4c-2.9,5.9-5.2,12-6.9,18.2   c-0.6,2.5-1.3,5.1-1.7,7.6c-0.2,1.4-0.5,2.7-0.6,4.1c-0.3,2.5-0.6,4.9-0.8,7.3c-0.3,4.1-0.2,8.3,0.2,12.4c0.4,3.6,1.1,7.2,2,10.7   c0.1,0.4,0.2,0.9,0.4,1.3c-0.4,0-0.9,0.1-1.3,0.2c-0.7,0.1-1.4,0.1-2.1,0.1c-1.6,0.1-3.1-0.4-4.3-1.4c-0.6-0.5-1.1-0.9-1.5-1.2   c-0.2-0.1-0.4-0.2-0.6-0.2H326c-0.4,0-0.8,0.1-1.1,0.3c-0.3,0.2-0.5,0.6-0.5,1c-0.1,1.1,0.6,1.9,2.2,2.7c1.4,0.7,2.9,1.1,4.4,1.2   c0.5,0,1,0.1,1.5,0.1c1.4,0,2.9,0,4.3-0.1C337.6,189.7,338.7,192,340.1,194z M341.1,175.4c-0.1-3.3-0.1-6.7,0.2-10   c0.7-12.1,3.2-24,7.4-35.4c3.8-9.6,7-14.8,9.9-15.6c0.3-0.1,0.6-0.1,0.9-0.1c2.1,0,3.5,1.8,4.3,5.4c0.9,3.6,1.1,8.7,0.6,15.4   c-0.5,8.3-2.1,16.5-4.9,24.4c-0.4,1.3-0.9,2.5-1.5,3.8c-0.3,0.6-0.6,1.4-1,2.1c-3.3,7.1-7.3,12.4-11.9,15.8   c-1.1,0.8-2.1,1.4-3.1,2.1C341.6,180.6,341.2,178,341.1,175.4L341.1,175.4z"></path>		<path id="Path_113" class="st1" d="M452,224.9c0-0.5-0.4-1-1-1.1l0,0c-65.8-9.7-115.8-12.6-154.2-11.4   c-11.8,0.4-22.4,1.1-31.9,1.9c10.9-16.7,18.5-36,19.9-39.8c6.2,0.1,12,0,16.8-0.2c0.4,2.6,1.1,5.2,2.2,7.7l0,0   c1.4,3.5,3.3,6.8,5.6,9.8c4.5,5.7,9.5,9.1,15,10l0.5,0.1c1.1,0.2,2.2,0.2,3.3,0.1h0.1c0.3,0,0.6-0.1,0.9-0.2   c1.1-0.3,1.7-0.8,1.8-1.5c0-0.4-0.1-0.8-0.3-1.2l0,0c-0.3-0.3-0.7-0.5-1.1-0.5c-0.4-0.1-0.8,0-1.1,0.2c-0.3,0.2-0.6,0.4-0.8,0.8   h-0.5c-1.1,0-2.3-0.1-3.3-0.4c-0.1,0-0.2-0.1-0.3-0.1l0,0c-2.4-1.2-4.5-3.7-6.4-7.4c-1.8-4.1-3.1-8.3-3.8-12.7l0,0   c-0.3-1.6-0.5-3.2-0.8-5c1.5-0.1,2.3-0.1,2.3-0.1c2.3-0.1,3.8-0.3,3.8-0.3c3.5-0.4,5.3-1.2,5.3-2.2c0-0.3-0.2-0.6-0.4-0.8l0,0   c-0.5-0.2-0.9-0.2-1.4-0.2h-4.4c-1.9,0-3.8,0-5.6-0.1c-0.1-0.9-0.1-1.6-0.2-2.5c-0.1-2.3-0.2-4.6-0.3-7c-0.2-6.4,0.2-12.8,1-19.1   c0.4-4.3,1.5-8.6,3-12.6c0.1-0.3,0.3-0.6,0.5-0.8c0.2-0.2,0.3-0.4,0.3-0.6l0,0v-0.1c0-0.1,0-0.3-0.1-0.4l0,0   c-0.4-0.9-1.7-1.8-3.8-2.8c-1.7-0.8-3.5-1.4-5.3-1.7c-0.7-0.1-1.4-0.2-2.2-0.2c-2,0-4,0.3-5.8,1l-0.6,0.3c-1.3,0.6-1.8,1.3-1.8,2   c0,0.3,0.1,0.5,0.3,0.8l0.1,0.2l-0.1,0.2c-0.1,0.4-1.1,3.3-1.1,3.3c-5.2,15.4-10.3,29-15.1,40.7l-12.8-0.2c-2.8,0-1.6,0-4.5-0.1   c-0.6,0-1.2,0-1.7-0.1c-1.7-0.1-3.4-0.3-5.1-0.6h-0.3c-0.6-0.1-1.1-0.2-1.2-0.2c-0.4,0-0.9,0.1-1.3,0.2c-0.2,0.2-0.4,0.5-0.4,0.8   c0,0.6,1,1.3,2.9,1.7c1.5,0.3,2.9,0.5,4.4,0.6c5.7,0.8,12.2,1.2,18.6,1.4c-1.4,3.8-8.3,21.6-17.6,36.5c-0.9,1.3-1.7,2.7-2.6,3.9   l-0.9,0.1c-21.3,2.3-36.6,5.6-47.2,8.5c-9.3,2.6-11,3.3-17.7,6.5c-7.9,3.9-8.7,8.3-8.6,10.3c0,0.4,0,0.8,0.1,1.2   c1.9,9.4,20.1,7.2,20.1,7.2c9.9-0.9,19.6-3.6,28.6-7.8c1.9-0.9,3.8-1.8,5.6-2.8c7.6-4.1,14.4-9.6,20-16.2c0.9-1.1,1.8-2.3,2.6-3.5   l0.3-0.4l0,0l0.6-0.1c12.1-1.3,24.9-2.2,38.2-2.6c71-2.4,149.5,10.7,149.5,10.7h0.3C451.6,226,452,225.5,452,224.9z M300,131.9   c0,0,0.5-1.4,1.7-1.3c1.2,0.1,0.9,1.8,0.8,2.5l0,0c-0.1,0.5-0.2,1.2-0.3,2.2c-1.3,8.4-1.8,16.8-1.7,25.3c0,1.1,0.1,2.3,0.1,3.6   l0,0c0,2.2,0.2,4.3,0.4,6.5c-3.6,0.1-10.3,0.2-15.2,0.3C290.1,160,294.9,147.3,300,131.9z M250.7,225.6c-0.8,0.8-1.6,1.5-2.4,2.2   c-0.9,0.8-1.7,1.4-2.7,2.2c-3.3,2.4-6.7,4.4-10.4,6.3c-10.2,5.3-21.4,8.4-32.9,9.2c-9.6,0.3-12-3.2-12-3.2l-0.3-0.4   c-1.4-2.4,1.1-4.9,1.1-4.9l0.4-0.4c0.3-0.3,0.8-0.6,1.1-1c2.7-2.2,7.1-4.3,12.7-6.3c11.9-4.2,29.7-7.8,50.4-10.3   c0.1,0,0.9-0.1,1.1-0.1C254.8,221.2,252.8,223.6,250.7,225.6z"></path>		<path id="Path_114" class="st1" d="M435.4,160.9c-1.6-3.9-6.6-4-10.1-1.6c-5.9,3.9-9.6,11.9-12.2,18c-0.8,1.7-1.7,4.2-2.4,6l0,0   c-0.6,1.7-1.3,3.3-2.3,4.9l0,0c-0.2,0.2-0.2,0.3-0.4,0.3c-0.1,0-0.2,0-0.2-0.1l0,0l-0.1-0.1c-0.6-1.1,0.1-4.3,0.2-5.1   c0.1-1.1,0.4-2.6,0.5-3.8l0,0c0.2-1.4,0.3-2.8,0.4-4.2c0.4-5.8,0.5-15.9-5.6-17.5c-0.6-0.2-1.1-0.3-1.7-0.3c0,0-4.2-0.8-8.7,4.7   c-2.5,3.1-4.3,6.7-5.6,10.5l0,0c-0.1,0.2-0.2,0.4-0.2,0.6c-0.2,0.6-0.4,1.2-0.6,1.7c0,0.1,0,0.1-0.1,0.2c-0.3,1.1-0.6,2-1,3   c-0.7,1.8-1.2,3.6-1.5,5.5c-0.8,3.2-1.2,4.3-1.5,4.6l0,0c-0.2,0-0.4,0-0.6-0.1l0,0c-0.6-0.4-0.9-1.2-0.8-1.9   c0.2-1.7,0.4-3.8,0.5-4.4c0.6-3.6,0.6-3.2,1.1-6.8c1.2-9.1,2.4-25.3-6-23.3c-1.3,0.4-2.3,1.3-2.9,2.5l-1.3,2.6   c-0.2,0.5-0.1,1.1,0.4,1.3c0.1,0.1,0.2,0.1,0.3,0.1c1.1,0.2,1.8,1.8,2.1,3.5c0.5,3.9,0.1,8.6-0.6,13.3v0.3   c-0.4,2.7-0.9,5.4-1.3,7.8v0.3c-0.2,1.3-1.2,6.6-0.5,11.2c0,0.3,0.1,0.7,0.2,1l0,0c0,0.1,0.1,0.3,0.1,0.4c0.4,1.6,1.5,4.3,4.2,4.4   h0.5c2-0.1,3.8-1.2,4.9-2.8l0,0c1.4-2.2,2.4-5.4,3.5-9.7c0.7-3.4,1.6-6.7,2.7-10c0.1-0.5,0.3-1,0.4-1.5c1.5-4.7,3.9-10,5.5-12.3   c0.6-0.8,1.3-1.4,2.2-1.8c0.1,0,0.1-0.1,0.2-0.1h0.4c0.2,0,0.4,0,0.5,0.1c0.1,0,0.2,0.1,0.3,0.1l0,0c0.2,0.1,0.4,0.3,0.5,0.4   c0.5,0.6,1,1.9,1.2,4.3v0.9c0.1,4.3,0.1,8.6-0.2,12.9c-0.1,2.3-0.9,7.3-1.2,10c-0.1,0.6-0.2,1.1-0.2,1.7v0.2l0,0   c-0.4,4.3,1,9.5,7.2,6c2-1.4,3.5-3.2,4.5-5.4l0,0c2.3-6.3,4.5-12,7.3-18.1l0,0c1.5-3.9,3.7-8.4,6.5-11.7c0.8-0.9,1.6-1.5,2.8-1.3   c2.4,0.4,1.7,4,1.6,5.9c-0.8,8.6-3,17.5-4.9,26.1l0,0c-0.5,3.3,1.2,5.3,4.5,4.9c3.7-0.4,4.1-4.5,4.9-8.1c1.5-6.4,2.5-13,3.2-19.5   C436.2,167.9,436.6,163.9,435.4,160.9z"></path>		<g id="Group_67" transform="translate(0 140.273)">			<path id="Path_115" class="st1" d="M-17.8,46.7c-0.2,0-0.6,0-1.2,0.1c-0.6,0.1-1,0.1-1.4,0.1c-1.5,0-2.5-0.4-3.1-1.3    s-0.8-3-0.8-6.5v-0.9c0-2.6,0-6.9,0.1-13C-24,19.2-24,14.4-24,10.9c0-1.7,0-4.6-0.1-8.7s-0.1-7.4-0.1-9.9c0-2.5,0.2-4.1,0.7-4.7    c0.5-0.6,1.3-1,2.6-1c0.1,0,0.3,0,0.6,0c1.3,0,2.6,0,3.9,0c0.9,0,1.9,0,3.1-0.1c1.2-0.1,1.9-0.1,2.2-0.1c0.4,0,0.8,0,1.1,0.1    c0.2,0,0.5,0.1,0.7,0.2c0.4,0.3,0.7,0.7,0.8,1.2C-8.1-11-8.1-10-8.1-9v1.2c-0.1,3.4-0.1,6.7-0.1,9.9c0,11.8,0,19.2,0.1,22.4    c0,1.9,0.1,3.8,0.3,5.7c0.1,0.8,0.5,1.6,1.1,2.1C-5.8,32.8-4.9,33-4,33c0.3,0,0.9,0,1.8-0.1s1.6-0.1,2.1-0.1c1.7,0,2.9,0.3,3.5,1    c0.7,0.7,1,2,1,4.1v4.4C4.5,43.5,4,44.8,3,45.7c-0.9,0.8-2.3,1.1-4.3,1.1c-0.6,0-1.4,0-2.3,0c-0.9,0-1.5,0-1.8,0L-17.8,46.7z"></path>			<path id="Path_116" class="st1" d="M19-1.2c2.6,0,4.3,0.3,5.1,0.8c0.8,0.5,1.1,1.8,1.1,3.8v22c0,3.9,0.3,6.3,0.8,7.3    c0.5,1,1.6,1.6,2.8,1.5c1.3,0.1,2.5-0.5,3.2-1.6c0.8-1.4,1.2-3,1.1-4.6V10c0-0.9-0.1-2.1-0.2-3.8c-0.2-1.7-0.2-2.9-0.2-3.7    c0-1.4,0.3-2.4,0.9-2.9c0.6-0.5,2-0.8,4.3-0.8h6.7c1.5,0,2.5,0.3,3,0.8c0.5,0.6,0.7,1.8,0.7,3.6V37c0,0.3,0,1,0.1,2    c0.1,1.1,0.1,2.1,0.1,2.9c0,2.2-0.4,3.6-1.2,4.2c-0.8,0.6-2.5,0.9-5.1,0.9h-5.7c-1.5,0-2.4-0.2-2.9-0.6C33,46,32.7,45.2,32.7,44    v-0.6l-0.5-0.1c-1.2,1.3-2.7,2.4-4.3,3.1c-1.8,0.7-3.6,1-5.5,1c-4.2,0-7.2-1.3-9.2-3.9c-1.9-2.6-2.9-6.7-2.9-12.3V5.5    c0-2.9,0.3-4.7,1-5.5c0.7-0.8,2-1.2,3.9-1.2L19-1.2z"></path>			<path id="Path_117" class="st1" d="M58.2,33.6V13.3h-0.6c-2,0-3.3-0.3-3.9-0.9s-0.9-1.9-0.9-4c0-3.2,0.3-5.2,1-6    c0.7-0.7,2.1-1.1,4.1-1.1h0.3v-7c0-2.3,0.3-3.8,0.8-4.3c0.6-0.5,1.9-0.8,4-0.8h1.6c0.2,0,1,0,2.2,0c1.3,0,2.4,0,3.4,0    c0.9-0.1,1.8,0.2,2.6,0.7c0.5,0.5,0.7,1.6,0.7,3.4v7.9h0.7c1.8,0,3,0.2,3.6,0.7c0.6,0.5,1,1.4,1,2.8v4.9c0,1.7-0.3,2.7-0.9,3.1    c-0.6,0.4-2.1,0.6-4.4,0.6v18.1c-0.1,0.5,0.1,1.1,0.4,1.5c0.4,0.3,0.9,0.5,1.4,0.4c1.5,0,2.4,0.2,2.7,0.6    c0.3,0.4,0.4,1.3,0.4,2.7v6.5c0,1.4-0.3,2.3-0.9,2.8c-0.6,0.5-1.7,0.8-3.3,0.8h-4c-2.2,0.1-4.4-0.1-6.6-0.3    c-1.1-0.2-2.1-0.6-3-1.2c-0.9-0.8-1.6-1.9-1.9-3c-0.5-2.4-0.6-4.9-0.5-7.3L58.2,33.6z"></path>			<path id="Path_118" class="st1" d="M83.2,43.6L83,38.2V37c-0.1-1,0.1-2,0.6-2.9c0.5-0.6,1.2-0.9,2-0.8c0.8,0.1,1.6,0.3,2.4,0.5    c1.2,0.3,2.4,0.5,3.6,0.5c1.2,0.1,2.5-0.1,3.5-0.7c0.7-0.5,1.1-1.4,1-2.3c0-1.4-1.3-3-4-4.9c-0.8-0.6-1.4-1.1-1.9-1.4    c-2.2-1.6-4.1-3.7-5.5-6.1c-1.2-2.1-1.8-4.5-1.8-6.9C83,8,84.6,4.3,87.5,1.8c3-2.5,6.8-3.8,11.6-3.8c4.7,0,7.6,0.3,8.8,0.9    s1.7,1.7,1.7,3.3l0.1,4.8c0.1,0.9-0.2,1.9-0.8,2.6c-0.6,0.6-1.5,0.9-2.4,0.9c-0.6,0-1.2-0.1-1.8-0.2c-0.7-0.1-1.5-0.2-2.2-0.2    c-0.9,0-1.8,0.2-2.6,0.8c-0.6,0.5-1,1.2-1,2c0,0.9,1.3,2.4,3.8,4.6c1.3,1.1,2.3,2,3,2.7c1.9,1.7,3.5,3.7,4.7,6    c1,2,1.5,4.2,1.5,6.4c0,4.8-1.6,8.4-4.7,11.1c-3.1,2.6-7.5,3.9-13.2,3.9c-2.8,0.1-5.5-0.2-8.2-0.8c-1.7-0.5-2.6-1.4-2.6-2.5    L83.2,43.6z"></path>			<path id="Path_119" class="st1" d="M139.9,1.4v6.8c0,2-1.1,3-3.3,3.3c-0.3,0-0.5,0.1-0.6,0.1c-1.4,0-2.7,0.9-3.4,2.1    c-0.6,1.2-0.9,4.1-0.9,8.7c0,4.2,0.3,6.9,0.9,8.2c0.7,1.3,2,2,3.4,1.9h1.1c0.8-0.1,1.6,0.1,2.2,0.6c0.5,0.7,0.7,1.5,0.6,2.3v8.7    c0.1,0.9-0.3,1.8-1.1,2.3c-1,0.6-2.2,0.8-3.3,0.8c-7.1,0-12-1.7-14.8-5.1c-2.8-3.4-4.2-9.5-4.2-18.5c0-9.9,1.4-16.7,4.1-20.2    c2.7-3.5,7.7-5.3,14.8-5.3c1.7,0,2.8,0.2,3.4,0.7C139.7-0.5,140,0.4,139.9,1.4z"></path>			<path id="Path_120" class="st1" d="M175.4,46.7c-2.6,0-4.3-0.3-5.1-0.8c-0.8-0.5-1.1-1.8-1.1-3.9V20.2c0-3.9-0.3-6.3-0.8-7.3    c-0.6-1-1.7-1.6-2.8-1.5c-1.3-0.1-2.5,0.5-3.2,1.5c-0.8,1.4-1.2,3-1.1,4.6v18.1c0,0.9,0.1,2.2,0.2,3.9c0.2,1.7,0.2,2.9,0.2,3.6    c0,1.4-0.3,2.4-0.8,2.9s-2,0.8-4.3,0.8H150c-1.5,0-2.5-0.3-3-0.9c-0.5-0.6-0.7-1.8-0.7-3.7v-46c0-0.2,0-0.9-0.1-2    c-0.1-1.1-0.1-2.1-0.1-3c0-2.2,0.4-3.6,1.1-4.2c0.8-0.6,2.5-0.9,5.2-0.9h5.7c0.9-0.1,1.8,0.1,2.7,0.4c0.5,0.2,0.8,0.7,0.8,1.3    c0,0.1,0,0.3-0.1,0.4c0,0.2,0,0.3,0,0.5l0.3,13.3l0.5,0.1c1.2-1.3,2.7-2.4,4.3-3.1c1.7-0.7,3.6-1.1,5.5-1c4.2,0,7.3,1.3,9.2,3.9    c1.9,2.6,2.9,6.7,2.9,12.4v25.7c0,2.9-0.3,4.7-1,5.5c-0.7,0.8-2,1.2-3.8,1.2L175.4,46.7z"></path>			<path id="Path_121" class="st1" d="M225.7,35.7v6.4c0,0.6-0.1,1.2-0.3,1.7c-0.1,0.4-0.4,0.7-0.7,1c-1.7,0.9-3.5,1.5-5.3,1.8    c-2.4,0.5-4.8,0.8-7.3,0.8c-7.7,0-13.2-2-16.7-6c-3.5-4-5.3-10.4-5.2-19.2c0-8.5,1.5-14.6,4.5-18.4c3-3.8,7.8-5.7,14.3-5.7    c3.1-0.1,6.1,0.5,8.9,1.8c2.5,1.2,4.7,3.1,6.3,5.4c1,1.5,1.6,3.2,1.9,5c0.4,3.5,0.6,7,0.5,10.5c0,2.7-0.3,4.5-0.8,5.4    c-0.6,0.9-1.7,1.4-2.9,1.3h-16.1c-0.4,0-0.7,0.1-1,0.4c-0.4,0.2-0.6,0.5-0.6,0.7c0,2.1,0.7,3.7,2.1,4.6c1.4,1,3.6,1.4,6.7,1.4    c1.8,0,3.5-0.4,5.2-1.1c1-0.5,2.1-0.8,3.1-1.1c0.9-0.1,1.9,0.2,2.6,0.8C225.4,34,225.7,34.9,225.7,35.7z M207,17.8h3.1    c0.7,0.1,1.4-0.1,2-0.5c0.4-0.6,0.6-1.4,0.5-2.2c0-2.3-0.3-3.8-1-4.7c-0.7-0.9-1.8-1.3-3.3-1.3c-1-0.1-2,0.3-2.6,1.1    c-0.6,1.1-0.9,2.3-0.8,3.6c-0.1,1.1,0.1,2.2,0.4,3.3C205.8,17.6,206.4,17.9,207,17.8L207,17.8z"></path>			<path id="Path_122" class="st1" d="M236.1,46.7c-1.5,0-2.5-0.3-3-0.9c-0.5-0.6-0.7-1.8-0.7-3.6V8.6c0-0.2,0-0.9-0.1-2    c-0.1-1.1-0.1-2-0.1-2.9c0-2.2,0.4-3.6,1.1-4.1c0.7-0.6,2.4-0.9,5.1-0.9h4.9c2.1,0,3.1,1.5,3.2,4.5v0.4l0.7,0.1    c0.5-1.6,1.3-3,2.4-4.3c0.7-0.9,1.7-1.5,2.9-1.6c0.9-0.1,1.8,0.3,2.4,1c0.5,0.7,0.7,1.9,0.7,3.8v8.9c0,2-0.8,3.1-2.4,3.4    c-0.1,0-0.2,0-0.3,0c-1.9,0.2-3.3,0.8-4,1.6c-0.8,0.8-1.1,2.1-1.1,3.9v15.3c0,1,0.1,2.2,0.2,3.8c0.1,1.6,0.2,2.6,0.2,3.2    c0,1.7-0.2,2.9-0.7,3.3c-0.4,0.5-1.6,0.7-3.3,0.7L236.1,46.7z"></path>		</g>	</g></g></svg>